<svg width="301" height="301" viewBox="0 0 301 301" fill="none" xmlns="http://www.w3.org/2000/svg">
<mask id="mask0_39_122" style="mask-type:alpha" maskUnits="userSpaceOnUse" x="0" y="0" width="301" height="301">
<rect x="0.428467" y="0.636475" width="300" height="300" fill="#D9D9D9"/>
</mask>
<g mask="url(#mask0_39_122)">
<path d="M196.613 149.074C202.282 149.074 207.043 147.096 210.897 143.14C214.751 139.184 216.678 134.517 216.678 129.14C216.678 123.763 214.773 119.074 210.963 115.074C207.153 111.074 202.465 109.074 196.901 109.074C191.336 109.074 186.574 111.052 182.616 115.008C178.658 118.964 176.678 123.631 176.678 129.008C176.678 134.385 178.657 139.074 182.613 143.074C186.569 147.074 191.235 149.074 196.613 149.074ZM89.1785 132.511H165.428V97.824H89.1785V132.511ZM41.991 267.824C34.9076 239.907 27.6681 214.297 20.2722 190.993C12.8764 167.689 9.17847 144.236 9.17847 120.636C9.17847 98.4661 16.9512 79.6422 32.4966 64.1649C48.042 48.6876 66.8318 40.949 88.866 40.949H160.741C168.094 33.6573 176.675 28.0844 186.485 24.2302C196.294 20.3761 206.359 18.449 216.678 18.449C223.97 18.449 230.272 20.9099 235.585 25.8318C240.897 30.7537 243.553 36.8344 243.553 44.074C243.553 46.1573 243.345 48.2927 242.928 50.4802C242.512 52.6677 241.887 54.9073 241.053 57.199C240.428 58.6573 239.803 59.8552 239.178 60.7927C238.553 61.7302 238.033 62.8068 237.616 64.0224L259.179 85.949H291.054V189.386L252.616 197.824L233.241 267.824H145.428V245.324H130.428V267.824H41.991ZM72.3035 227.824H92.9285V205.324H182.616V227.824H202.616L220.428 164.699L251.053 159.074V125.949H242.303L199.178 82.824C199.178 79.3006 199.387 75.6724 199.803 71.9393C200.22 68.2062 200.845 64.5427 201.678 60.949C197.303 63.2406 193.241 66.0011 189.491 69.2302C185.741 72.4594 181.991 76.3656 178.241 80.949H88.866C77.9762 80.949 68.6391 84.7726 60.8547 92.4199C53.0706 100.067 49.1785 109.473 49.1785 120.636C49.1785 137.017 51.7826 153.976 56.991 171.515C62.1993 189.054 67.3035 207.824 72.3035 227.824Z" fill="#00A3FF"/>
</g>
</svg>
